<?xml version="1.0" encoding="utf-8"?>
<!-- Generator: Adobe Illustrator 19.0.0, SVG Export Plug-In . SVG Version: 6.00 Build 0)  -->
<svg version="1.1" id="Layer_1" xmlns="http://www.w3.org/2000/svg" xmlns:xlink="http://www.w3.org/1999/xlink" x="0px" y="0px"
	 viewBox="0 0 1000 1000" style="enable-background:new 0 0 1000 1000;" xml:space="preserve">
<style type="text/css">
	.st0{fill:none;stroke:#FFF200;stroke-width:24;stroke-miterlimit:10;}
	.st1{fill:#ED1C24;stroke:#000000;stroke-width:17;stroke-miterlimit:10;}
	.st2{fill:#FFFFFF;stroke:#000000;stroke-width:4;stroke-miterlimit:10;}
	.st3{fill:#21428D;}
	.st4{fill:none;stroke:#FFFFFF;stroke-width:26;}
	.st5{fill:none;stroke:#594A42;stroke-width:24;stroke-miterlimit:10;}
</style>
<path id="XMLID_4_" class="st0" d="M909.4,255.2l-1.5-18.8c0,0,25.8,327.7,40.6,428.1c14.8,100.4-60.6,101.4-60.6,101.4l-110.3,17"
	/>
<path id="XMLID_1_" class="st1" d="M766.6,840.2H95.3c-21.8,0-39.7-17.9-39.7-39.7c7.5-90.1,12.2-187.8,12.3-292.3
	c0-105.5-4.7-204.1-12.3-295c0-2.7,0.3-16.7,11.7-28c7.2-7.2,17.1-11.7,28-11.7c110.1-5.8,225.9-9,346.8-8.8
	c112.8,0.2,221.1,3.4,324.4,8.8c2.7,0,16.7,0.3,28,11.7c7.2,7.2,11.7,17.1,11.7,28c-7.3,94.3-11.6,196-11.3,304.3
	c0.3,100.3,4.5,194.8,11.3,282.9c0,2.7-0.3,16.7-11.7,28C787.4,835.8,777.5,840.2,766.6,840.2z"/>
<g id="XMLID_9_">
	<g id="XMLID_13_">
	</g>
	<g id="XMLID_14_">
	</g>
</g>
<path id="XMLID_5_" class="st2" d="M806.3,715.6"/>
<path id="XMLID_8_" class="st3" d="M418.3,244.9h30.6c84.7,0,153.3,68.6,153.3,153.3v207.6c0,84.7-68.6,153.3-153.3,153.3h-30.6
	C333.7,759,265,690.4,265,605.7V398.2C265,313.5,333.7,244.9,418.3,244.9z"/>
<path id="XMLID_7_" class="st4" d="M347.7,418.7l160.7,161.7L431,674.2v-335l77.4,89.6L347.7,586.2"/>
<polyline id="XMLID_2_" class="st5" points="968.3,232.7 907.9,236.4 909.6,257.6 "/>
</svg>
